<?xml version="1.0" encoding="UTF-8" standalone="no"?>
<svg xmlns="http://www.w3.org/2000/svg" height="100%" width="100%" version="1.1" viewBox="0 0 209 326">
	<rect height="88.6" width="209" y="0" x="0" fill="#d40000"/>
	<path d="m7.09,7.09,195,0l-195,74.4z" fill="#A00"/>
	<rect stroke-linejoin="miter" stroke-dasharray="none" stroke-dashoffset="0" height="325" width="208" stroke="#d40000" stroke-linecap="butt" stroke-miterlimit="4" y="0.5" x="0.5" stroke-width="1" fill="none"/>
	<text font-size="28px" font-family="Times New Yorker" y="74" x="24" style="writing-mode:lr-tb;letter-spacing:0px;text-anchor:start;word-spacing:0px;text-align:start;" font-weight="normal" xml:space="preserve" font-style="normal" line-height="125%" font-stretch="normal" font-variant="normal" fill="#ffffff"><tspan>Red Team</tspan></text>
	<g transform="translate(0,-4)" fill="#FFF">
		<path d="m185,54.7c1.43-0.28,3.39,2.18,2.96,3.18l-5.88,5.61c-0.678,0.346-2.75-1.67-2.34-2.3z"/>
		<path d="m181,50.8c1.19-1.12,4.88,2.38,4.25,3.35l-5.13,6.8c-0.921,0.678-4.5-1.45-4.16-2.28z"/>
		<path d="m176,46.5c1.16-0.28,5.09,2,4.71,3.05-1.58,3.49-5.87,8.89-6.7,9.35-0.919,0.547-3.77-1.23-3.55-1.97,1.53-3.82,3.21-6.87,5.54-10.4z"/>
		<path d="m171,43.8c0.722-1.03,4.67,1.43,4.38,2.56l-3.49,5.57c-0.766,0.368-4.85-0.324-4.95-1.77z"/>
		<path d="m167,48.8-6.25,9.63,9,12.5-2.38,11.9,14.6,0,0.625-11.1c2.25-2.54,3.45-3.85,3.75-10.9-0.4-0.729-2.83,2.17-4.25,3.25-1.67-1.62-2.85-3.79-9.27-4.04,5.3,6.01,4.77,10.2,6.28,10.4-2.02,0.0012-0.848,5.42-1.14,8.12l-0.875-8.12h-1.75l2.5-1.88c-3-5.21-5.95-11.6-9.95-10.8,0.792-0.667,1.7-1.62,1.62-3.12,3.45,4.18,7.42,1.38,7.37-1.96z" stroke="#d40000" stroke-miterlimit="4" stroke-dasharray="none" stroke-width="0.5"/>
	</g>
	<g fill="#A00" transform="matrix(0.6983458,0,0,0.6983458,-17.574966,118.05784)">
		<path d="m185,54.7c1.43-0.28,3.39,2.18,2.96,3.18l-5.88,5.61c-0.678,0.346-2.75-1.67-2.34-2.3z"/>
		<path d="m181,50.8c1.19-1.12,4.88,2.38,4.25,3.35l-5.13,6.8c-0.921,0.678-4.5-1.45-4.16-2.28z"/>
		<path d="m176,46.5c1.16-0.28,5.09,2,4.71,3.05-1.58,3.49-5.87,8.89-6.7,9.35-0.919,0.547-3.77-1.23-3.55-1.97,1.53-3.82,3.21-6.87,5.54-10.4z"/>
		<path d="m171,43.8c0.722-1.03,4.67,1.43,4.38,2.56l-3.49,5.57c-0.766,0.368-4.85-0.324-4.95-1.77z"/>
		<path d="m167,48.8-6.25,9.63,9,12.5-2.38,11.9,14.6,0,0.625-11.1c2.25-2.54,3.45-3.85,3.75-10.9-0.4-0.729-2.83,2.17-4.25,3.25-1.67-1.62-2.85-3.79-9.27-4.04,5.3,6.01,4.77,10.2,6.28,10.4-2.02,0.0012-0.848,5.42-1.14,8.12l-0.875-8.12h-1.75l2.5-1.88c-3-5.21-5.95-11.6-9.95-10.8,0.792-0.667,1.7-1.62,1.62-3.12,3.45,4.18,7.42,1.38,7.37-1.96z" stroke="#FFF" stroke-miterlimit="4" stroke-dasharray="none" stroke-width="0.5"/>
	</g>
	<path stroke-linejoin="miter" d="m131,163,63.8,0" stroke="#A00" stroke-linecap="butt" stroke-miterlimit="4" stroke-dasharray="none" stroke-width="3" fill="none"/>
	<path stroke-linejoin="miter" d="m14.2,163,63.8,0" stroke="#A00" stroke-linecap="butt" stroke-miterlimit="4" stroke-dasharray="none" stroke-width="3" fill="none"/>
	<text font-size="12px" font-family="ChunkFive" y="230" x="104" style="writing-mode:lr-tb;letter-spacing:0px;text-anchor:middle;word-spacing:0px;text-align:center;" font-weight="normal" xml:space="preserve" font-style="normal" font-stretch="normal" font-variant="normal" line-height="100%" fill="#A00"><tspan>Description</tspan></text>
	<text font-size="36px" font-family="Sketch Block" y="138" x="104" style="writing-mode:lr-tb;letter-spacing:0px;text-anchor:middle;word-spacing:0px;text-align:center;" font-weight="normal" xml:space="preserve" font-style="normal" font-stretch="normal" font-variant="normal" line-height="100%" fill="#A00"><tspan>Name</tspan></text>
</svg>
